# xmcd
#
# Track frame offsets:
#	150
#	18392
#	43070
#
# Disc length: 813 seconds
#
# Revision: 1
# Processed by: cddbd v1.5.1PL0 Copyright (c) Steve Scherf et al.
# Submitted via: CDex 1.50Beta5
#
DISCID=1d032b03
DTITLE=篠原涼子 - Goodbye Baby
DYEAR=1900
DGENRE=Pop
TTITLE0=Goodbye Baby
TTITLE1=Destiny
TTITLE2=Goodbye Baby (Backing Track)
EXTD=
EXTT0=
EXTT1=
EXTT2=
PLAYORDER=
